<svg width="35" height="29" viewBox="0 0 35 29" fill="none" xmlns="http://www.w3.org/2000/svg">
<path d="M33.625 16.375C33.625 11.3749 32.7292 7 31.8333 6.37501C31.2593 5.97443 28.4772 5.57388 24.6667 5.33785C22.5315 5.20559 26.4583 1.375 17.5 1.375C8.54167 1.375 12.4684 5.20559 10.3333 5.33785C6.52274 5.57388 3.74081 5.97443 3.16667 6.37501C2.27083 7 1.375 11.3749 1.375 16.375C1.375 21.3751 2.27083 25.75 3.16667 26.3749C4.0625 27.0001 10.3333 27.625 17.5 27.625C24.6667 27.625 30.9375 27.0001 31.8333 26.3749C32.7292 25.75 33.625 21.3751 33.625 16.375Z" stroke="#035014" stroke-width="1.5" stroke-linecap="round" stroke-linejoin="round"/>
<path d="M17.5 22C20.4686 22 22.875 19.4817 22.875 16.375C22.875 13.2683 20.4686 10.75 17.5 10.75C14.5314 10.75 12.125 13.2683 12.125 16.375C12.125 19.4817 14.5314 22 17.5 22Z" stroke="#035014" stroke-width="1.5" stroke-linecap="round" stroke-linejoin="round"/>
</svg>
