<svg width="34" height="24" viewBox="0 0 34 24" fill="none" xmlns="http://www.w3.org/2000/svg" xmlns:xlink="http://www.w3.org/1999/xlink">
<path d="M27.332,2.006C27.3,2.202 27.3,2.436 27.3,2.904L27.3,21.096C27.3,21.564 27.3,21.798 27.332,21.994C27.501,23.006 28.294,23.799 29.305,23.967C29.501,24 29.735,24 30.204,24C30.672,24 30.907,24 31.102,23.967C32.114,23.799 32.907,23.006 33.076,21.994C33.108,21.798 33.108,21.564 33.108,21.096L33.108,2.904C33.108,2.436 33.108,2.202 33.076,2.006C32.907,0.994 32.114,0.201 31.102,0.033C30.907,0 30.672,0 30.204,0C29.735,0 29.501,0 29.305,0.033C28.294,0.201 27.501,0.994 27.332,2.006ZM18.2,8.287C18.2,7.819 18.2,7.585 18.232,7.389C18.401,6.377 19.194,5.584 20.206,5.416C20.401,5.383 20.636,5.383 21.104,5.383C21.573,5.383 21.807,5.383 22.003,5.416C23.014,5.584 23.807,6.377 23.976,7.389C24.008,7.585 24.008,7.819 24.008,8.287L24.008,21.096C24.008,21.564 24.008,21.798 23.976,21.994C23.807,23.006 23.014,23.799 22.003,23.967C21.807,24 21.573,24 21.104,24C20.636,24 20.401,24 20.206,23.967C19.194,23.799 18.401,23.006 18.232,21.994C18.2,21.798 18.2,21.564 18.2,21.096L18.2,8.287ZM9.326,12.548C9.293,12.744 9.293,12.978 9.293,13.446L9.293,21.096C9.293,21.564 9.293,21.798 9.326,21.994C9.495,23.006 10.287,23.799 11.299,23.967C11.495,24 11.729,24 12.198,24C12.666,24 12.9,24 13.096,23.967C14.108,23.799 14.901,23.006 15.069,21.994C15.102,21.798 15.102,21.564 15.102,21.096L15.102,13.446C15.102,12.978 15.102,12.744 15.069,12.548C14.901,11.536 14.108,10.743 13.096,10.575C12.9,10.542 12.666,10.542 12.198,10.542C11.729,10.542 11.495,10.542 11.299,10.575C10.287,10.743 9.495,11.536 9.326,12.548ZM0.033,17.034C0,17.23 0,17.464 0,17.932L0,21.096C0,21.564 0,21.798 0.033,21.994C0.201,23.006 0.994,23.799 2.006,23.967C2.202,24 2.436,24 2.904,24C3.373,24 3.607,24 3.803,23.967C4.814,23.799 5.607,23.006 5.776,21.994C5.808,21.798 5.808,21.564 5.808,21.096L5.808,17.932C5.808,17.464 5.808,17.23 5.776,17.034C5.607,16.022 4.814,15.229 3.803,15.061C3.607,15.028 3.373,15.028 2.904,15.028C2.436,15.028 2.202,15.028 2.006,15.061C0.994,15.229 0.201,16.022 0.033,17.034Z" clip-rule="evenodd" fill-rule="evenodd" fill="#000000"/>
</svg>
