<svg width="30" height="32" viewBox="0 0 30 32" fill="none" xmlns="http://www.w3.org/2000/svg" xmlns:xlink="http://www.w3.org/1999/xlink">
<path d="M24.037,1.058L10.389,15.638C9.868,16.192 9.454,16.85 9.173,17.576C8.892,18.302 8.748,19.08 8.75,19.865L8.75,21.471C8.75,21.788 8.868,22.092 9.078,22.316C9.288,22.541 9.573,22.667 9.869,22.667L11.373,22.667C12.108,22.669 12.836,22.515 13.516,22.215C14.195,21.914 14.812,21.473 15.33,20.916L28.978,6.337C29.633,5.636 30,4.687 30,3.698C30,2.708 29.633,1.759 28.978,1.058C28.313,0.379 27.428,0 26.508,0C25.587,0 24.702,0.379 24.037,1.058L24.037,1.058ZM27.396,4.646L13.747,19.225C13.116,19.895 12.263,20.273 11.373,20.275L10.989,20.275L10.989,19.865C10.991,18.914 11.344,18.003 11.972,17.329L25.62,2.749C25.859,2.505 26.177,2.369 26.508,2.369C26.838,2.369 27.156,2.505 27.396,2.749C27.631,3.001 27.763,3.342 27.763,3.698C27.763,4.053 27.631,4.394 27.396,4.646L27.396,4.646Z" fill="#B6E5B9"/>
<path d="M16.25,2.4C16.25,1.075 15.175,0 13.85,0L10,0C4.477,0 0,4.477 0,10L0,22C0,27.523 4.477,32 10,32L20,32C25.523,32 30,27.523 30,22L30,17.067C30,15.741 28.925,14.667 27.6,14.667C26.275,14.667 25.2,15.741 25.2,17.067L25.2,22C25.2,24.872 22.872,27.2 20,27.2L10,27.2C7.128,27.2 4.8,24.872 4.8,22L4.8,10C4.8,7.128 7.128,4.8 10,4.8L13.85,4.8C15.175,4.8 16.25,3.725 16.25,2.4Z" clip-rule="evenodd" fill-rule="evenodd" fill="#B6E5B9"/>
</svg>
