<svg width="44" height="40" viewBox="0 0 44 40" fill="none" xmlns="http://www.w3.org/2000/svg" xmlns:xlink="http://www.w3.org/1999/xlink">
<path d="M36.869,24.682C36.325,25.306 36.39,26.254 37.015,26.798C37.639,27.342 38.587,27.277 39.131,26.652L36.869,24.682ZM42,20L43.331,20.692C43.556,20.258 43.556,19.742 43.331,19.309L42,20ZM20,6.116L19.826,4.627L19.826,4.627L20,6.116ZM17.652,5.012C16.846,5.204 16.349,6.013 16.541,6.819C16.733,7.625 17.542,8.122 18.348,7.93L17.652,5.012ZM39.131,26.652C40.496,25.085 41.538,23.609 42.241,22.521C42.593,21.977 42.861,21.528 43.043,21.211C43.134,21.052 43.204,20.927 43.252,20.839C43.276,20.795 43.295,20.76 43.308,20.735C43.315,20.723 43.32,20.713 43.324,20.706C43.326,20.702 43.327,20.699 43.328,20.697C43.329,20.695 43.33,20.694 43.33,20.694C43.33,20.693 43.33,20.693 43.331,20.692C43.331,20.692 43.331,20.692 43.331,20.692C43.331,20.692 43.331,20.692 42,20C40.669,19.309 40.669,19.308 40.669,19.308C40.669,19.308 40.669,19.308 40.669,19.308C40.669,19.308 40.669,19.307 40.669,19.307C40.67,19.307 40.67,19.307 40.67,19.307C40.669,19.307 40.669,19.308 40.668,19.31C40.667,19.313 40.664,19.318 40.66,19.326C40.651,19.342 40.638,19.367 40.619,19.402C40.581,19.471 40.522,19.577 40.443,19.715C40.284,19.992 40.042,20.396 39.721,20.893C39.078,21.888 38.12,23.245 36.869,24.682L39.131,26.652ZM42,20C43.331,19.309 43.331,19.308 43.331,19.307C43.33,19.307 43.33,19.307 43.33,19.306C43.329,19.305 43.329,19.304 43.328,19.302C43.326,19.299 43.324,19.295 43.322,19.291C43.317,19.282 43.31,19.269 43.302,19.253C43.285,19.221 43.261,19.177 43.23,19.12C43.167,19.007 43.077,18.845 42.958,18.642C42.72,18.235 42.37,17.662 41.91,16.977C40.993,15.61 39.63,13.784 37.847,11.953C34.304,8.316 28.941,4.5 22,4.5L22,7.5C27.787,7.5 32.423,10.684 35.698,14.047C37.324,15.716 38.575,17.39 39.419,18.648C39.84,19.276 40.158,19.796 40.368,20.155C40.472,20.335 40.55,20.474 40.601,20.565C40.626,20.611 40.644,20.645 40.656,20.667C40.661,20.677 40.665,20.685 40.668,20.689C40.669,20.691 40.669,20.692 40.67,20.693C40.67,20.693 40.67,20.693 40.67,20.693C40.669,20.693 40.669,20.692 40.669,20.692C40.669,20.692 40.669,20.692 42,20ZM22,4.5C21.258,4.5 20.533,4.544 19.826,4.627L20.174,7.606C20.768,7.537 21.377,7.5 22,7.5L22,4.5ZM19.826,4.627C19.081,4.714 18.357,4.844 17.652,5.012L18.348,7.93C18.941,7.789 19.55,7.679 20.174,7.606L19.826,4.627Z" fill="#A3C5B0"/>
<path d="M22,12.5C21.172,12.5 20.5,13.172 20.5,14C20.5,14.828 21.172,15.5 22,15.5L22,12.5ZM24,14.341L23.5,15.756L23.5,15.756L24,14.341ZM27.659,18L29.073,17.5L29.073,17.5L27.659,18ZM26.5,20C26.5,20.828 27.172,21.5 28,21.5C28.828,21.5 29.5,20.828 29.5,20L26.5,20ZM22,15.5C22.529,15.5 23.033,15.591 23.5,15.756L24.5,12.927C23.716,12.65 22.874,12.5 22,12.5L22,15.5ZM23.5,15.756C24.778,16.207 25.793,17.222 26.244,18.5L29.073,17.5C28.319,15.368 26.632,13.681 24.5,12.927L23.5,15.756ZM26.244,18.5C26.409,18.967 26.5,19.472 26.5,20L29.5,20C29.5,19.126 29.35,18.284 29.073,17.5L26.244,18.5Z" fill="#A3C5B0"/>
<path d="M5.061,0.939C4.475,0.354 3.525,0.354 2.939,0.939C2.354,1.525 2.354,2.475 2.939,3.061L5.061,0.939ZM38.939,39.061C39.525,39.646 40.475,39.646 41.061,39.061C41.646,38.475 41.646,37.525 41.061,36.939L38.939,39.061ZM2.939,3.061L38.939,39.061L41.061,36.939L5.061,0.939L2.939,3.061Z" fill="#A3C5B0"/>
<path d="M22,27.5C22.828,27.5 23.5,26.828 23.5,26C23.5,25.172 22.828,24.5 22,24.5L22,27.5ZM20,25.659L19.5,27.073L19.5,27.073L20,25.659ZM16.341,22L17.756,21.5L17.756,21.5L16.341,22ZM17.562,20.752C17.425,19.935 16.652,19.384 15.835,19.521C15.018,19.658 14.467,20.431 14.604,21.248L17.562,20.752ZM22,24.5C21.472,24.5 20.967,24.409 20.5,24.244L19.5,27.073C20.284,27.35 21.126,27.5 22,27.5L22,24.5ZM20.5,24.244C19.222,23.793 18.207,22.778 17.756,21.5L14.927,22.5C15.681,24.632 17.368,26.319 19.5,27.073L20.5,24.244ZM17.756,21.5C17.671,21.26 17.606,21.01 17.562,20.752L14.604,21.248C14.676,21.679 14.785,22.097 14.927,22.5L17.756,21.5Z" fill="#A3C5B0"/>
<path d="M7.412,15C7.964,14.383 7.912,13.435 7.294,12.882C6.677,12.33 5.729,12.382 5.176,13L7.412,15ZM4.637,16L5.827,16.913L5.827,16.913L4.637,16ZM2,20L0.669,19.309C0.444,19.742 0.444,20.258 0.669,20.691L2,20ZM24.174,35.373C24.997,35.277 25.586,34.532 25.49,33.709C25.393,32.886 24.648,32.297 23.826,32.394L24.174,35.373ZM5.176,13C4.532,13.72 3.955,14.425 3.447,15.087L5.827,16.913C6.294,16.305 6.823,15.658 7.412,15L5.176,13ZM3.447,15.087C2.545,16.262 1.858,17.305 1.393,18.059C1.16,18.436 0.983,18.741 0.862,18.956C0.801,19.063 0.755,19.148 0.723,19.207C0.707,19.237 0.694,19.261 0.685,19.278C0.681,19.286 0.677,19.293 0.674,19.298C0.673,19.301 0.672,19.303 0.671,19.305C0.67,19.305 0.67,19.306 0.67,19.307C0.67,19.307 0.669,19.308 0.669,19.308C0.669,19.308 0.669,19.308 0.669,19.308C0.669,19.308 0.669,19.309 2,20C3.331,20.691 3.331,20.692 3.331,20.692C3.331,20.692 3.331,20.692 3.331,20.692C3.331,20.692 3.331,20.692 3.331,20.692C3.33,20.693 3.33,20.693 3.33,20.693C3.33,20.693 3.331,20.692 3.331,20.692C3.332,20.69 3.334,20.687 3.336,20.682C3.341,20.672 3.35,20.656 3.362,20.634C3.386,20.589 3.424,20.52 3.475,20.429C3.578,20.246 3.736,19.974 3.946,19.634C4.367,18.951 4.998,17.994 5.827,16.913L3.447,15.087ZM2,20C0.669,20.691 0.669,20.692 0.669,20.693C0.67,20.693 0.67,20.693 0.67,20.694C0.671,20.695 0.671,20.696 0.672,20.698C0.674,20.701 0.676,20.705 0.678,20.709C0.683,20.718 0.69,20.731 0.698,20.747C0.715,20.779 0.739,20.823 0.77,20.88C0.833,20.993 0.923,21.155 1.042,21.358C1.28,21.765 1.63,22.338 2.09,23.023C3.007,24.39 4.37,26.216 6.153,28.047C9.696,31.684 15.059,35.5 22,35.5L22,32.5C16.213,32.5 11.577,29.316 8.302,25.953C6.676,24.284 5.425,22.61 4.581,21.352C4.16,20.724 3.842,20.204 3.632,19.845C3.528,19.665 3.45,19.526 3.399,19.435C3.374,19.389 3.356,19.355 3.344,19.333C3.339,19.323 3.335,19.315 3.332,19.311C3.331,19.309 3.331,19.308 3.33,19.307C3.33,19.307 3.33,19.307 3.33,19.307C3.331,19.307 3.331,19.308 3.331,19.308C3.331,19.308 3.331,19.309 2,20ZM22,35.5C22.741,35.5 23.466,35.456 24.174,35.373L23.826,32.394C23.232,32.463 22.623,32.5 22,32.5L22,35.5Z" fill="#A3C5B0"/>
</svg>
