<svg width="22" height="24" viewBox="0 0 22 24" fill="none" xmlns="http://www.w3.org/2000/svg" xmlns:xlink="http://www.w3.org/1999/xlink">
<path d="M16.139,9.476C16.678,8.847 16.605,7.9 15.976,7.361C15.347,6.822 14.4,6.895 13.861,7.524L16.139,9.476ZM8,16.667L6.861,17.643C7.146,17.975 7.562,18.167 8,18.167C8.438,18.167 8.854,17.975 9.139,17.643L8,16.667ZM6.139,12.19C5.6,11.561 4.653,11.489 4.024,12.028C3.395,12.567 3.322,13.514 3.861,14.143L6.139,12.19ZM13.861,7.524L6.861,15.69L9.139,17.643L16.139,9.476L13.861,7.524ZM9.139,15.69L6.139,12.19L3.861,14.143L6.861,17.643L9.139,15.69Z" fill="#035014" fill-opacity="0.6"/>
<path d="M10,24C16.008,24 20.5,18.402 20.5,12L17.5,12C17.5,17.196 13.934,21 10,21L10,24ZM20.5,12C20.5,5.598 16.008,0 10,0L10,3C13.934,3 17.5,6.804 17.5,12L20.5,12ZM10,0C3.992,0 -0.5,5.598 -0.5,12L2.5,12C2.5,6.804 6.066,3 10,3L10,0ZM-0.5,12C-0.5,18.402 3.992,24 10,24L10,21C6.066,21 2.5,17.196 2.5,12L-0.5,12Z" fill="#035014" fill-opacity="0.6"/>
</svg>
