<svg width="21" height="16" viewBox="0 0 21 16" fill="none" xmlns="http://www.w3.org/2000/svg">
<path d="M19 10.8335C20.3082 9.3317 21 8 21 8C21 8 17.3636 1 11 1C10.6588 1 10.3254 1.02013 10 1.05822C9.6578 1.09828 9.3244 1.15822 9 1.23552" stroke="#A3C5B0" stroke-width="1.5" stroke-linecap="round" stroke-linejoin="round"/>
<path d="M11 5C11.3506 5 11.6872 5.06015 12 5.17071C12.8524 5.47199 13.528 6.1476 13.8293 7C13.9398 7.3128 14 7.6494 14 8" stroke="#A3C5B0" stroke-width="1.5" stroke-linecap="round" stroke-linejoin="round"/>
<path d="M11 11C10.6494 11 10.3128 10.9398 10 10.8293C9.1476 10.528 8.47198 9.8524 8.1707 9C8.11386 8.8392 8.07034 8.6721 8.04147 8.5" stroke="#A3C5B0" stroke-width="1.5" stroke-linecap="round" stroke-linejoin="round"/>
<path d="M3.14701 5C2.83877 5.34451 2.56234 5.68241 2.31864 6C1.45286 7.1282 1 8 1 8C1 8 4.63636 15 11 15C11.3412 15 11.6746 14.9799 12 14.9418" stroke="#A3C5B0" stroke-width="1.5" stroke-linecap="round" stroke-linejoin="round"/>
</svg>
