<svg width="32" height="24" viewBox="0 0 32 24" fill="none" xmlns="http://www.w3.org/2000/svg" xmlns:xlink="http://www.w3.org/1999/xlink">
<path d="M15.379,4.984C19.771,4.985 23.995,6.848 27.178,10.19C27.418,10.448 27.801,10.444 28.037,10.182L30.328,7.629C30.448,7.496 30.514,7.316 30.513,7.129C30.512,6.941 30.444,6.762 30.323,6.631C21.969,-2.21 8.788,-2.21 0.434,6.631C0.313,6.762 0.244,6.941 0.243,7.129C0.242,7.316 0.309,7.496 0.428,7.629L2.72,10.182C2.956,10.445 3.339,10.448 3.579,10.19C6.762,6.848 10.987,4.984 15.379,4.984L15.379,4.984ZM15.379,13.292C17.792,13.292 20.119,14.282 21.908,16.071C22.15,16.324 22.531,16.319 22.767,16.058L25.055,13.505C25.176,13.371 25.243,13.189 25.241,13C25.239,12.812 25.169,12.631 25.046,12.5C19.599,6.905 11.164,6.905 5.717,12.5C5.594,12.631 5.524,12.812 5.522,13.001C5.52,13.189 5.587,13.371 5.708,13.505L7.996,16.058C8.232,16.319 8.613,16.324 8.855,16.071C10.643,14.283 12.968,13.293 15.379,13.292L15.379,13.292ZM19.777,19.386C19.9,19.253 19.967,19.071 19.964,18.881C19.96,18.692 19.886,18.513 19.759,18.386C17.231,16.024 13.528,16.024 11,18.386C10.872,18.512 10.798,18.692 10.794,18.881C10.791,19.07 10.858,19.253 10.98,19.386L14.94,23.797C15.056,23.927 15.214,24 15.379,24C15.544,24 15.702,23.927 15.819,23.797L19.777,19.386Z" clip-rule="evenodd" fill-rule="evenodd" fill="#000000"/>
</svg>
